<svg width="33" height="33" viewBox="0 0 33 33" fill="none" xmlns="http://www.w3.org/2000/svg">
<path d="M24.25 1H8.75C4.46979 1 1 4.46979 1 8.75V24.25C1 28.5302 4.46979 32 8.75 32H24.25C28.5302 32 32 28.5302 32 24.25V8.75C32 4.46979 28.5302 1 24.25 1Z" stroke="#232B4F" stroke-width="2" stroke-linecap="round" stroke-linejoin="round"/>
<path d="M22.7 15.523C22.8913 16.813 22.6709 18.1304 22.0703 19.288C21.4697 20.4455 20.5194 21.3842 19.3545 21.9705C18.1897 22.5568 16.8696 22.7609 15.5821 22.5537C14.2945 22.3465 13.1051 21.7386 12.183 20.8165C11.2609 19.8944 10.653 18.7049 10.4458 17.4174C10.2386 16.1299 10.4427 14.8098 11.029 13.645C11.6153 12.4801 12.554 11.5298 13.7115 10.9292C14.8691 10.3285 16.1865 10.1082 17.4765 10.2995C18.7923 10.4946 20.0105 11.1078 20.9511 12.0484C21.8917 12.989 22.5049 14.2072 22.7 15.523Z" stroke="#232B4F" stroke-width="2" stroke-linecap="round" stroke-linejoin="round"/>
<path d="M25.025 7.9751H25.0415" stroke="#232B4F" stroke-width="2" stroke-linecap="round" stroke-linejoin="round"/>
</svg>
